<?xml version="1.0" standalone="no"?>
<!DOCTYPE svg PUBLIC "-//W3C//DTD SVG 20010904//EN"
 "http://www.w3.org/TR/2001/REC-SVG-20010904/DTD/svg10.dtd">
<svg version="1.0" xmlns="http://www.w3.org/2000/svg"
 width="1104.000000pt" height="1104.000000pt" viewBox="0 0 1104.000000 1104.000000"
 preserveAspectRatio="xMidYMid meet">
<metadata>
Created by potrace 1.14, written by Peter Selinger 2001-2017
</metadata>
<g transform="translate(0.000000,1104.000000) scale(0.100000,-0.100000)"
fill="#000000" stroke="none">
<path d="M4876 9991 c-6 -9 -5 -68 9 -426 3 -103 9 -276 19 -598 2 -42 5 -80
9 -83 5 -5 68 -8 103 -5 7 1 10 20 8 54 -2 28 -5 107 -7 175 -3 106 -2 122 12
123 47 4 138 8 236 10 105 3 155 -4 155 -20 0 -6 120 -169 163 -221 7 -8 28
-36 46 -62 l34 -48 59 4 c32 2 61 5 63 8 3 3 -4 16 -16 29 -12 13 -29 35 -38
49 -9 14 -24 34 -33 45 -9 11 -53 69 -97 129 l-80 109 64 42 c71 47 81 56 113
102 41 58 59 130 57 223 -2 117 -35 191 -120 272 -22 21 -126 74 -165 85 -43
11 -587 15 -594 4z m597 -124 c32 -15 73 -41 91 -60 29 -30 38 -46 61 -112 4
-11 7 -47 7 -81 0 -122 -67 -214 -187 -254 -59 -20 -55 -20 -255 -26 l-185 -6
-2 154 c-2 84 -4 209 -5 278 l-3 125 80 3 c44 1 84 4 90 6 5 1 64 2 130 1 105
-2 127 -5 178 -28z"/>
<path d="M6079 9953 c10 -27 24 -59 29 -73 6 -14 27 -65 47 -115 20 -49 41
-99 46 -110 14 -32 100 -239 103 -250 2 -5 8 -21 13 -35 47 -110 67 -168 66
-185 -2 -26 -7 -64 -32 -224 -12 -73 -20 -135 -19 -136 2 -2 29 -6 61 -10 l57
-7 2 33 c1 34 4 60 8 69 1 3 3 17 5 31 2 15 6 42 9 60 5 32 10 63 21 146 3 20
16 51 30 67 26 35 46 58 135 161 19 22 51 60 70 84 19 24 40 48 45 55 10 11
95 112 164 195 20 24 53 62 73 85 41 46 38 50 -33 61 -45 7 -45 6 -84 -42 -22
-26 -44 -53 -50 -59 -5 -7 -24 -29 -42 -50 -17 -22 -45 -54 -61 -72 -17 -19
-41 -47 -54 -64 -13 -17 -31 -40 -42 -52 -10 -11 -35 -41 -55 -66 -20 -24 -43
-51 -51 -60 -8 -9 -26 -30 -40 -48 -14 -17 -28 -32 -32 -32 -6 0 -46 80 -52
105 -2 6 -9 24 -16 40 -25 57 -94 226 -183 445 -16 41 -31 76 -32 78 -3 4 -41
11 -87 17 l-38 5 19 -47z"/>
<path d="M4125 9869 c-88 -21 -169 -41 -180 -43 -11 -3 -78 -19 -150 -36 -71
-17 -141 -34 -155 -36 -46 -9 -60 -15 -54 -25 3 -6 7 -20 9 -32 2 -12 6 -31 9
-42 2 -11 14 -60 25 -110 11 -49 32 -139 46 -200 15 -60 29 -119 31 -130 2
-11 6 -31 9 -45 4 -14 8 -34 10 -45 5 -21 8 -35 24 -100 10 -40 19 -83 26
-120 2 -11 12 -47 21 -80 9 -33 18 -69 19 -80 5 -39 18 -85 25 -90 4 -3 61 9
126 25 66 16 130 31 144 34 14 2 92 20 175 40 82 20 161 39 177 41 15 3 37 9
50 14 13 5 26 9 31 10 36 5 57 15 53 27 -3 7 -8 29 -12 48 -6 32 -9 36 -33 32
-14 -2 -27 -5 -28 -6 -2 -2 -6 -3 -10 -4 -14 -3 -88 -19 -100 -22 -7 -1 -40
-9 -75 -18 -35 -8 -72 -17 -83 -19 -11 -2 -27 -7 -35 -10 -8 -3 -60 -15 -115
-27 -55 -12 -109 -24 -120 -26 -52 -13 -65 -14 -66 -7 -1 14 -6 37 -19 83 -7
25 -14 54 -17 65 -6 29 -15 68 -17 80 -1 6 -10 45 -21 88 -10 42 -16 79 -14
81 2 3 20 7 39 9 19 3 35 6 35 7 0 1 9 3 20 5 11 2 76 18 145 34 69 16 136 32
150 34 37 7 154 38 163 44 4 2 4 10 0 16 -4 7 -9 21 -10 32 -8 52 -1 52 -171
10 -57 -14 -107 -23 -113 -20 -5 4 -9 2 -9 -3 0 -5 -6 -9 -12 -10 -7 0 -51
-10 -98 -22 -47 -12 -93 -23 -103 -25 -10 -2 -27 -7 -37 -10 -17 -5 -38 15
-38 38 0 4 -3 20 -6 35 -4 15 -8 36 -10 47 -2 11 -9 40 -16 65 -7 25 -14 54
-16 65 -2 11 -6 31 -10 45 -3 14 -6 30 -7 35 -2 6 -6 15 -9 20 -10 16 5 35 30
40 12 3 31 7 43 10 11 2 28 6 37 9 9 3 31 8 49 11 18 3 45 10 60 16 15 6 29
10 31 9 1 -1 27 4 57 10 30 6 56 11 57 10 2 -1 15 3 29 8 14 6 42 13 61 16 19
3 47 10 62 15 14 6 26 9 26 7 0 -2 19 2 43 9 23 7 41 15 40 19 -1 3 -4 24 -8
46 -8 50 -4 50 -210 -1z"/>
<path d="M8049 9523 c-12 -27 -30 -72 -41 -100 -11 -29 -22 -53 -26 -53 -4 0
-32 38 -62 85 -30 47 -57 85 -60 84 -3 0 -18 -10 -33 -23 l-28 -22 31 -40 c17
-21 36 -46 43 -54 28 -34 59 -81 56 -84 -2 -2 -31 -7 -64 -10 -90 -10 -139
-17 -147 -22 -6 -4 -5 -25 1 -66 0 -5 18 -5 39 -2 20 3 66 10 101 15 35 5 68
6 72 2 4 -4 -5 -34 -21 -66 -15 -32 -28 -60 -28 -63 0 -3 -6 -19 -13 -36 -11
-27 -10 -32 6 -44 38 -28 49 -17 90 87 l40 101 23 -29 c13 -15 37 -48 55 -73
17 -25 39 -54 49 -65 18 -19 19 -19 45 7 l26 27 -34 45 c-19 24 -43 57 -54 72
-11 15 -26 33 -33 40 -19 20 -17 20 152 39 44 4 54 14 51 53 -1 30 -7 31 -95
19 -97 -14 -130 -17 -130 -13 0 3 5 17 12 33 6 15 12 33 14 38 8 27 36 100 45
116 8 15 4 21 -20 34 -17 8 -33 15 -36 15 -3 0 -15 -21 -26 -47z"/>
<path d="M2543 9324 l-52 -23 15 -38 c9 -21 29 -67 46 -103 43 -92 51 -114 50
-122 -1 -5 3 -8 8 -8 6 0 9 -3 8 -7 -1 -5 10 -33 24 -63 14 -30 53 -118 88
-195 34 -77 73 -165 87 -195 15 -30 48 -104 75 -165 27 -60 52 -113 56 -117 4
-3 41 10 82 29 222 103 379 173 389 173 6 0 11 5 11 10 0 6 6 10 13 10 6 0 34
11 60 24 26 14 63 30 82 36 36 12 37 16 12 72 -19 44 -6 46 -170 -30 -59 -28
-111 -52 -115 -53 -6 -1 -75 -33 -234 -109 l-58 -27 -15 23 c-8 13 -15 26 -15
29 0 5 -15 38 -91 203 -18 37 -39 85 -49 107 -10 22 -29 66 -44 98 -45 100
-76 168 -143 317 -36 80 -66 145 -66 146 -1 1 -25 -9 -54 -22z"/>
<path d="M9139 8770 c-99 -18 -204 -124 -216 -218 -6 -52 -6 -53 1 -92 9 -47
38 -110 75 -164 17 -25 31 -47 31 -51 0 -4 6 -12 13 -20 7 -7 36 -46 63 -86
27 -41 52 -76 56 -79 17 -13 45 -109 43 -148 -5 -78 -71 -142 -152 -147 -47
-3 -125 20 -175 51 -117 74 -247 258 -248 351 0 32 -11 34 -58 13 -52 -24 -53
-45 -4 -160 62 -147 241 -327 347 -350 6 -1 18 -6 28 -11 37 -21 134 -22 194
-3 67 21 143 89 170 152 30 70 23 166 -19 237 -9 17 -24 44 -31 60 -8 17 -21
36 -30 44 -10 7 -17 18 -17 23 0 5 -5 14 -10 21 -6 7 -24 28 -40 47 -16 19
-30 39 -30 43 0 5 -11 23 -25 41 -54 70 -77 150 -62 212 9 35 74 105 103 112
112 25 227 -26 346 -152 34 -36 88 -131 102 -179 5 -16 9 -16 50 5 47 23 49
28 28 81 -7 16 -12 31 -12 33 0 16 -82 125 -128 171 -130 129 -267 186 -393
163z"/>
<path d="M1535 8664 c-26 -20 -43 -39 -38 -43 5 -3 30 -35 57 -71 26 -36 56
-76 66 -90 10 -14 37 -50 59 -80 22 -30 44 -59 48 -65 15 -19 48 -63 63 -85 8
-12 41 -56 73 -98 32 -43 66 -88 75 -101 16 -22 78 -105 94 -126 4 -5 31 -41
59 -80 29 -38 56 -74 60 -79 8 -9 266 175 282 201 4 7 14 13 22 13 7 0 15 3
17 8 3 8 61 53 187 147 45 33 81 66 81 73 0 7 -13 27 -28 43 l-29 31 -176
-134 c-97 -73 -188 -142 -203 -153 -15 -11 -46 -35 -68 -52 l-41 -32 -20 22
c-11 13 -31 38 -45 57 -13 19 -28 40 -32 45 -5 6 -52 69 -104 140 -52 72 -104
141 -115 155 -10 14 -68 93 -129 175 -60 83 -119 161 -130 173 -11 13 -20 28
-20 33 0 16 -16 9 -65 -27z"/>
<path d="M10019 8093 c-9 -10 -25 -23 -35 -29 -19 -11 -19 -12 2 -40 11 -16
47 -67 79 -114 32 -47 74 -106 92 -132 19 -27 31 -48 26 -48 -4 0 -19 -10 -33
-23 -14 -12 -49 -38 -77 -57 -29 -18 -53 -37 -53 -42 0 -4 -4 -8 -9 -8 -8 0
-54 -31 -186 -126 -11 -8 -51 -37 -90 -64 -38 -27 -74 -53 -80 -57 -5 -5 -32
-24 -60 -43 -27 -19 -51 -38 -53 -42 -2 -5 -10 -8 -17 -8 -7 0 -15 -3 -17 -8
-1 -4 -33 -29 -70 -55 -38 -26 -68 -52 -68 -57 0 -12 53 -89 61 -90 5 0 91 59
272 187 37 26 73 53 80 58 7 6 32 24 57 40 25 17 50 34 55 38 12 9 168 121
281 199 l81 57 29 -42 c50 -71 140 -200 167 -239 l25 -38 38 26 c22 15 41 28
43 30 2 1 -6 16 -18 32 -12 17 -21 35 -21 40 0 6 -4 12 -8 14 -8 3 -160 217
-204 286 -9 15 -21 32 -25 37 -5 6 -37 51 -71 100 -117 172 -158 229 -168 232
-5 2 -17 -5 -25 -14z"/>
<path d="M762 7845 c-31 -44 -31 -47 -18 -78 16 -35 78 -148 102 -184 8 -12
14 -29 14 -37 0 -8 4 -16 8 -18 4 -1 31 -46 59 -98 83 -157 134 -251 178 -330
23 -41 44 -79 46 -85 2 -5 39 -75 83 -153 l79 -144 23 29 c56 69 56 62 -12
183 -92 163 -95 170 -84 190 6 11 15 20 20 20 6 0 10 4 10 10 0 5 48 74 106
152 59 79 132 178 163 220 59 81 56 79 131 63 14 -3 45 -10 70 -15 25 -6 73
-16 107 -24 59 -13 63 -12 81 8 29 33 65 87 55 84 -9 -2 -38 4 -283 57 -85 19
-166 36 -180 39 -14 3 -77 16 -140 31 -63 14 -126 28 -140 30 -14 2 -56 11
-95 20 -81 19 -65 16 -220 49 -66 14 -123 26 -126 26 -3 0 -20 -20 -37 -45z
m198 -99 c14 -2 45 -9 70 -16 25 -6 59 -13 75 -16 17 -3 48 -10 70 -16 44 -11
68 -17 105 -24 14 -3 33 -7 42 -10 9 -3 27 -7 40 -9 13 -3 47 -10 76 -16 l52
-12 -17 -26 c-9 -14 -20 -30 -25 -36 -13 -16 -98 -130 -187 -252 -46 -62 -84
-113 -87 -113 -2 0 -12 17 -23 38 -20 40 -66 124 -84 157 -11 18 -60 108 -124
223 -12 23 -34 62 -48 87 -33 59 -32 65 8 55 17 -5 43 -11 57 -14z"/>
<path d="M5901 7484 c-37 -15 -139 -121 -222 -229 -13 -16 -26 -32 -30 -35 -5
-4 -178 -204 -288 -333 -9 -10 -25 -29 -36 -41 -11 -13 -42 -49 -70 -82 -27
-32 -60 -69 -72 -82 -13 -12 -23 -25 -23 -27 0 -3 -8 -13 -17 -23 -10 -10 -40
-44 -68 -77 -27 -32 -99 -115 -158 -184 -60 -69 -128 -148 -150 -175 -23 -27
-51 -58 -62 -70 -11 -12 -46 -53 -79 -91 -32 -39 -82 -97 -111 -130 -29 -33
-112 -130 -185 -215 -73 -85 -136 -157 -139 -160 -3 -3 -26 -30 -51 -60 -25
-30 -52 -61 -60 -70 -8 -9 -33 -37 -55 -64 -22 -27 -49 -58 -60 -70 -30 -33
-120 -138 -142 -164 -12 -16 -32 -25 -58 -27 -189 -17 -313 -26 -400 -30 -33
-2 -66 -3 -73 -4 -18 -2 -11 -52 32 -221 21 -84 40 -119 72 -136 19 -10 34
-23 34 -29 0 -5 -14 -26 -31 -45 -41 -46 -63 -73 -129 -150 -64 -75 -89 -104
-125 -144 -14 -16 -44 -52 -68 -79 -23 -28 -57 -67 -74 -86 -18 -20 -33 -41
-33 -46 0 -9 29 -36 42 -39 5 -1 139 119 212 189 23 22 95 90 160 150 65 61
142 132 170 158 l51 48 65 -8 c82 -10 446 -9 565 0 89 8 109 10 215 22 30 3
75 8 100 10 25 2 56 7 70 9 14 3 41 8 60 10 44 6 177 26 210 32 52 9 186 34
210 39 47 9 75 15 100 19 14 2 48 10 75 16 28 6 61 14 74 16 35 7 141 32 276
64 125 30 196 50 440 121 113 33 508 168 613 210 225 89 451 195 573 268 141
84 184 112 223 146 6 6 27 22 47 37 93 69 163 153 182 219 19 65 12 189 -19
305 -14 54 -27 105 -27 112 0 6 -4 12 -9 12 -4 0 -7 3 -6 8 2 6 -20 70 -28 81
-2 2 -34 -19 -71 -46 -38 -27 -73 -52 -78 -54 -6 -2 -50 -31 -100 -64 -49 -33
-102 -67 -116 -75 -14 -8 -68 -40 -120 -71 -237 -142 -548 -297 -813 -406
-209 -86 -605 -222 -694 -239 -13 -3 -42 -11 -65 -18 -41 -13 -118 -33 -167
-43 -42 -8 -55 -11 -55 -13 0 -1 -7 -3 -16 -5 -10 -1 -50 -11 -90 -20 -41 -9
-85 -19 -99 -21 -14 -3 -31 -7 -39 -10 -8 -2 -30 -7 -50 -10 -20 -3 -53 -10
-74 -15 -21 -6 -50 -12 -65 -14 -15 -2 -63 -11 -107 -20 -44 -8 -100 -18 -125
-21 -24 -3 -47 -7 -50 -9 -4 -2 -29 -7 -56 -11 -27 -3 -56 -7 -64 -9 -30 -5
-96 -15 -135 -20 -22 -3 -51 -7 -65 -9 -20 -4 -86 -13 -129 -18 -21 -2 -21 5
0 23 20 17 204 189 315 294 331 312 334 315 369 315 14 0 47 -14 73 -32 26
-18 55 -32 65 -31 9 0 23 1 30 2 16 1 37 21 107 102 30 34 64 73 75 85 17 19
55 61 136 156 9 10 45 50 79 88 34 38 71 80 82 92 33 38 132 151 153 174 11
12 45 50 75 85 30 35 62 70 70 79 8 9 42 47 75 85 33 38 67 77 75 85 8 9 42
47 75 85 33 38 67 76 75 85 49 51 199 228 209 247 30 57 6 126 -61 178 -7 6
-33 26 -58 45 -25 19 -51 40 -58 47 -7 7 -17 13 -20 13 -4 0 -19 11 -33 24
-54 50 -119 65 -178 40z m-2082 -2569 c54 -27 66 -108 24 -155 -90 -100 -244
24 -161 130 33 42 86 52 137 25z"/>
<path d="M10295 6808 c-16 -4 -41 -10 -55 -12 -192 -34 -378 -224 -418 -425
-7 -40 -7 -209 0 -256 11 -66 60 -186 91 -219 9 -11 17 -25 17 -30 0 -22 133
-134 193 -164 94 -46 163 -60 274 -57 158 4 269 52 384 165 58 57 85 93 112
150 42 89 51 135 50 250 -3 262 -150 486 -373 571 -80 30 -214 44 -275 27z
m269 -147 c87 -39 141 -84 187 -155 114 -174 121 -378 17 -538 -31 -49 -124
-138 -143 -138 -6 0 -17 -6 -23 -12 -7 -7 -16 -13 -20 -14 -4 0 -20 -6 -37
-13 -51 -21 -76 -25 -180 -25 -94 0 -104 2 -175 36 -110 53 -192 140 -234 248
-19 47 -21 57 -32 125 -31 188 70 386 236 467 128 62 293 70 404 19z"/>
<path d="M317 6795 c-9 -8 -19 -15 -24 -15 -4 0 -30 -24 -58 -54 -57 -61 -114
-165 -131 -241 -1 -5 -9 -35 -17 -65 -34 -127 -8 -315 59 -430 79 -134 230
-241 379 -267 51 -9 158 -9 211 -1 302 49 509 370 460 715 -6 42 -43 152 -56
166 -6 7 -81 27 -155 43 -54 11 -72 15 -170 40 -59 14 -95 15 -96 2 -1 -16 -6
-44 -13 -74 -6 -21 3 -24 167 -64 94 -24 177 -47 183 -52 30 -23 50 -194 32
-268 -5 -19 -10 -47 -13 -62 -8 -54 -67 -158 -119 -210 -92 -93 -199 -137
-321 -132 -64 2 -161 26 -210 52 -36 20 -127 91 -138 109 -4 6 -14 18 -21 25
-14 14 -47 73 -46 83 0 3 -6 18 -14 33 -26 51 -38 184 -23 257 4 17 9 44 13
60 16 82 90 191 168 253 l30 23 -19 35 c-26 49 -40 58 -58 39z"/>
<path d="M9905 5272 c-4 -15 -9 -41 -12 -59 -4 -30 -2 -32 34 -39 21 -4 52
-13 69 -20 17 -7 34 -11 36 -8 3 2 21 -3 41 -11 20 -8 39 -15 42 -14 11 1 70
-14 86 -22 15 -8 14 -18 -12 -111 -16 -57 -31 -112 -34 -123 -19 -86 -34 -138
-41 -145 -5 -5 -70 -31 -144 -60 -74 -28 -148 -57 -165 -64 -16 -7 -45 -19
-62 -26 -18 -7 -33 -15 -34 -19 0 -3 -2 -13 -4 -21 -2 -8 -7 -32 -11 -53 l-7
-38 29 11 c16 6 38 14 49 19 11 5 61 23 110 41 50 18 124 45 165 60 l75 28 13
-60 c29 -144 128 -243 282 -281 163 -40 309 30 406 196 22 38 48 110 75 210
22 84 43 159 46 167 4 8 5 18 5 22 -1 4 4 27 12 50 8 24 17 57 21 75 7 34 6
35 -115 67 -30 8 -91 24 -135 36 -44 12 -91 24 -104 26 -13 3 -31 9 -40 13 -9
5 -29 12 -46 15 -16 3 -46 10 -65 15 -19 5 -64 17 -100 26 -36 9 -72 19 -80
22 -8 3 -19 7 -25 8 -5 1 -55 15 -110 30 -55 15 -104 28 -110 29 -5 1 -16 5
-22 9 -7 5 -13 6 -13 3 0 -3 -10 -2 -22 3 -64 23 -76 22 -83 -7z m460 -221 c6
-1 28 -6 50 -12 22 -6 47 -13 55 -14 8 -2 76 -20 150 -40 73 -21 140 -38 147
-39 7 -1 16 -5 19 -9 4 -4 18 -7 30 -7 13 0 25 -4 29 -9 3 -5 -4 -45 -16 -87
-12 -43 -23 -85 -24 -94 -2 -8 -4 -15 -5 -15 -1 0 -3 -7 -5 -15 -32 -141 -57
-201 -113 -262 -103 -114 -292 -106 -400 18 -44 50 -54 80 -58 176 -2 72 -2
72 46 253 17 66 33 128 35 138 6 30 15 38 33 28 9 -5 22 -10 27 -10z"/>
<path d="M415 4681 c-4 -20 -9 -47 -11 -61 -2 -14 -7 -41 -11 -60 -3 -19 -6
-38 -5 -42 1 -5 -2 -8 -7 -8 -8 0 -34 21 -130 107 l-36 32 -22 -21 c-13 -12
-23 -27 -23 -33 0 -7 36 -42 80 -79 44 -38 80 -69 80 -71 0 -2 -127 -50 -160
-61 -49 -16 -48 -15 -37 -45 14 -35 24 -34 139 11 40 15 77 26 81 23 4 -3 5
-14 1 -25 -3 -11 -7 -26 -8 -32 -3 -12 -20 -108 -21 -116 0 -3 -4 -10 -8 -16
-9 -15 10 -30 49 -38 22 -5 31 -3 32 6 6 60 24 172 31 191 7 18 10 16 43 -14
20 -19 57 -54 82 -77 l47 -44 24 28 25 29 -33 30 c-19 17 -55 48 -80 69 -48
39 -56 54 -34 60 6 3 46 16 87 31 41 15 80 28 87 30 9 3 10 12 1 37 -6 18 -12
34 -13 36 -1 1 -37 -11 -79 -27 -90 -35 -141 -48 -132 -33 3 5 8 27 12 47 3
21 8 47 10 59 3 11 7 42 11 67 l5 46 -35 0 c-33 0 -36 -3 -42 -36z"/>
<path d="M9350 3974 c-102 -135 -192 -255 -200 -268 -8 -12 -30 -41 -47 -63
-18 -23 -33 -45 -33 -49 1 -5 17 -21 36 -36 43 -32 32 -40 139 102 44 58 82
107 85 110 3 3 17 21 30 40 14 19 30 42 37 50 49 59 143 184 146 193 5 15 42
-4 80 -39 14 -13 30 -24 34 -24 5 0 19 -10 33 -23 14 -12 62 -51 108 -85 53
-41 80 -68 75 -75 -10 -17 -96 -131 -103 -137 -3 -3 -17 -21 -30 -40 -13 -19
-27 -37 -30 -40 -3 -3 -19 -23 -35 -45 -16 -22 -41 -54 -55 -71 -44 -55 -55
-68 -72 -96 -17 -26 -17 -26 18 -53 19 -14 39 -25 43 -23 5 2 51 59 102 128
51 69 95 127 98 130 3 3 17 22 31 42 14 21 28 38 33 38 4 0 7 6 7 14 0 8 4 16
8 18 4 2 21 20 36 41 32 42 35 43 62 20 10 -10 75 -61 144 -113 69 -51 128
-98 131 -103 5 -8 -66 -113 -91 -137 -3 -3 -17 -21 -30 -40 -14 -19 -28 -39
-32 -45 -5 -5 -22 -28 -39 -50 -16 -22 -35 -47 -42 -55 -7 -8 -30 -40 -52 -70
-22 -30 -43 -56 -47 -58 -5 -2 -8 -8 -8 -13 0 -6 -9 -19 -20 -31 l-19 -21 37
-28 c41 -31 57 -35 65 -16 2 7 102 143 221 302 l217 289 -28 26 c-15 14 -62
50 -103 80 -41 30 -77 57 -80 60 -3 3 -63 50 -135 105 -71 55 -134 103 -140
108 -5 4 -75 57 -155 117 -80 60 -151 115 -159 122 -26 23 -75 58 -80 58 -3 0
-89 -111 -191 -246z"/>
<path d="M1596 3905 l-37 -37 125 -126 c68 -70 174 -178 234 -241 l110 -114
-146 -144 -147 -144 -130 134 c-71 74 -155 161 -186 193 -90 95 -84 92 -125
49 l-35 -37 64 -67 c173 -181 230 -240 277 -290 l51 -55 -23 -22 c-13 -12 -74
-73 -136 -137 l-112 -115 -83 86 c-45 47 -111 115 -147 152 -36 37 -98 101
-138 143 -40 43 -76 77 -80 77 -4 0 -22 -14 -40 -31 -38 -34 -40 -28 43 -115
28 -28 124 -129 215 -224 224 -235 231 -242 240 -238 20 7 780 764 778 775 -2
6 -73 84 -158 173 -85 89 -205 213 -266 277 l-111 116 -37 -38z"/>
<path d="M2395 3109 c3 -46 8 -102 10 -124 2 -22 7 -69 10 -105 3 -36 8 -84
11 -106 l5 -42 -73 -1 c-40 0 -80 -2 -88 -4 -8 -3 -30 -8 -47 -12 -18 -4 -33
-11 -33 -16 0 -5 -6 -9 -13 -9 -14 0 -105 -84 -124 -115 -20 -32 -54 -105 -60
-129 -11 -44 -8 -153 5 -191 19 -55 49 -103 102 -164 25 -28 103 -88 140 -106
19 -10 37 -21 40 -24 3 -3 25 -16 50 -29 25 -13 81 -45 125 -72 44 -27 85 -49
92 -50 6 0 13 -4 15 -9 2 -4 12 -11 23 -14 17 -5 30 12 90 118 39 69 73 125
78 125 4 0 7 7 7 16 0 9 8 28 18 42 11 15 86 144 167 287 82 143 153 263 159
267 6 4 8 8 3 8 -4 0 4 18 18 40 14 22 25 43 25 47 0 12 -98 65 -103 56 -3 -5
-14 -24 -24 -43 -11 -19 -48 -86 -82 -147 l-63 -113 -26 15 c-15 9 -34 20 -42
25 -8 5 -44 26 -80 47 -36 20 -68 40 -71 46 -3 5 -9 8 -13 8 -3 -1 -29 10 -56
24 -37 19 -50 31 -51 48 0 12 -2 29 -3 37 -2 8 -6 47 -9 85 -9 95 -18 186 -22
210 -2 11 -4 34 -4 52 -1 31 -17 47 -99 97 -11 7 -13 -7 -7 -75z m55 -504 c8
-2 16 -4 18 -5 1 -2 5 -3 10 -5 23 -6 53 -23 104 -57 31 -21 59 -38 62 -38 13
0 176 -103 176 -111 0 -5 -20 -42 -43 -82 -24 -39 -83 -141 -131 -225 -49 -83
-92 -154 -96 -157 -4 -3 -59 25 -121 62 -63 36 -124 72 -137 78 -54 29 -122
94 -153 144 -30 48 -33 62 -33 125 1 78 17 125 61 181 56 71 161 118 228 102
22 -5 47 -10 55 -12z"/>
<path d="M8921 2553 c-5 -10 -10 -22 -12 -28 -8 -30 -70 -155 -76 -155 -9 1
-63 87 -63 101 0 5 -4 9 -9 9 -5 0 -14 13 -21 29 -15 38 -31 43 -59 22 -17
-13 -22 -24 -16 -39 3 -12 11 -22 16 -22 5 0 9 -5 9 -11 0 -6 18 -38 40 -70
22 -32 40 -61 40 -63 0 -3 -25 -4 -55 -3 -30 1 -55 0 -55 -3 0 -3 -24 -4 -54
-3 -58 4 -67 -4 -58 -53 4 -20 9 -21 95 -17 51 2 100 5 110 7 9 2 17 2 17 0 0
-4 -22 -43 -75 -132 -20 -35 -35 -64 -33 -65 1 -1 13 -8 25 -14 27 -15 57 -17
48 -4 -3 5 -1 12 4 15 5 3 26 42 47 86 20 44 41 80 45 80 4 0 24 -28 45 -62
65 -110 73 -119 92 -108 47 27 47 24 -12 117 -31 49 -56 92 -56 96 0 3 47 6
104 5 57 0 108 2 113 5 10 6 10 48 0 63 -6 10 -66 10 -174 1 -24 -2 -43 0 -43
3 0 4 22 47 49 96 26 49 46 94 44 100 -3 10 -45 34 -58 34 -2 0 -9 -8 -14 -17z"/>
<path d="M7248 2535 c-136 -34 -247 -111 -314 -217 -13 -21 -27 -38 -29 -38
-3 0 -46 23 -96 51 -50 28 -91 49 -93 48 -1 -2 -12 -22 -23 -44 l-20 -41 98
-54 c54 -30 99 -60 99 -65 0 -6 -6 -40 -14 -76 -7 -36 -13 -95 -12 -130 l1
-64 45 0 45 0 1 60 c4 156 11 172 59 141 14 -10 45 -27 68 -40 23 -12 67 -37
97 -54 30 -18 79 -44 108 -59 28 -15 52 -31 52 -36 0 -5 -20 -34 -44 -65 -81
-106 -101 -149 -100 -222 0 -76 2 -83 33 -133 27 -44 91 -83 141 -86 19 -1 44
-3 55 -4 27 -1 102 20 151 43 49 24 113 90 138 144 34 72 19 166 -37 237 -19
24 -115 97 -137 104 -17 5 -13 15 43 88 81 106 109 166 113 242 5 113 -47 204
-144 252 -68 33 -193 41 -284 18z m200 -108 c44 -20 92 -72 92 -99 0 -8 3 -18
7 -22 4 -3 9 -27 11 -53 4 -56 -35 -141 -101 -217 l-42 -48 -45 25 c-25 13
-67 37 -95 52 -27 15 -68 37 -90 49 -22 12 -41 24 -43 29 -2 4 -8 7 -14 7 -5
0 -22 9 -38 20 -15 11 -29 17 -32 14 -3 -2 -11 2 -18 11 -7 8 -18 15 -26 15
-59 0 40 145 126 183 14 7 27 15 30 18 3 4 28 13 55 22 71 21 170 19 223 -6z
m11 -579 c100 -61 152 -129 146 -189 -1 -13 -3 -32 -4 -42 -3 -38 -87 -102
-151 -113 -14 -3 -30 -7 -37 -9 -7 -2 -15 0 -18 6 -4 5 -11 7 -16 4 -16 -11
-70 29 -86 64 -28 57 -14 147 28 181 3 3 10 12 15 21 12 21 77 99 82 99 3 0
21 -10 41 -22z"/>
<path d="M3690 2484 c-223 -42 -411 -244 -446 -479 -5 -34 -6 -162 -1 -185 14
-65 23 -93 49 -145 54 -109 121 -180 228 -241 37 -21 113 -53 143 -60 9 -2 27
-7 40 -10 51 -13 181 -15 244 -4 100 17 202 70 277 143 54 53 126 158 132 192
1 5 9 30 18 54 48 133 34 300 -36 435 -35 65 -153 191 -203 216 -16 8 -32 18
-35 21 -7 8 -112 47 -147 54 -61 13 -80 15 -138 18 -33 2 -89 -2 -125 -9z
m190 -98 c144 -14 303 -127 362 -255 104 -228 13 -515 -196 -616 -143 -69
-296 -71 -431 -5 -165 80 -261 241 -258 430 2 81 47 226 76 238 4 2 7 9 7 15
1 19 69 88 122 123 26 18 71 40 99 49 52 17 145 34 164 29 6 -2 30 -5 55 -8z"/>
<path d="M4809 2248 c0 -13 -2 -114 -4 -225 -2 -112 -6 -207 -9 -212 -4 -5 -2
-12 4 -16 6 -4 7 -11 3 -17 -3 -7 -7 -97 -9 -202 -1 -105 -3 -242 -5 -303 -1
-62 0 -115 2 -118 3 -2 24 -6 46 -8 48 -4 42 -10 124 129 32 54 62 104 66 110
16 21 33 50 43 72 5 12 15 28 20 35 6 6 47 73 90 147 43 74 84 140 89 147 6 7
11 14 11 17 0 6 63 109 71 116 3 3 8 13 12 23 7 18 27 24 27 7 0 -9 38 -78
157 -290 11 -20 39 -71 63 -115 23 -44 46 -84 50 -90 4 -5 21 -35 37 -65 17
-30 40 -73 53 -95 13 -22 38 -67 56 -100 31 -57 35 -60 75 -63 23 -2 45 0 50
5 7 7 11 164 24 880 l4 231 -45 4 c-78 6 -69 73 -78 -580 -2 -161 -6 -295 -8
-297 -2 -2 -13 12 -23 33 -11 20 -40 71 -63 111 -24 41 -48 84 -53 95 -5 12
-18 36 -29 54 -11 17 -16 32 -12 32 4 0 2 4 -3 8 -10 7 -69 101 -70 112 0 3
-12 25 -26 50 -15 25 -50 88 -80 140 -29 52 -60 100 -68 106 -33 25 -59 -7
-199 -249 -7 -12 -23 -38 -35 -59 -12 -20 -74 -122 -137 -227 -63 -105 -118
-191 -121 -191 -3 0 -5 30 -3 68 2 37 6 207 9 377 3 171 6 333 6 361 1 28 -1
56 -5 63 -4 6 -29 11 -57 11 -44 0 -49 -2 -50 -22z"/>
</g>
</svg>
