<svg aria-hidden="true" style="position:absolute;width:0;height:0;overflow:hidden" xmlns="http://www.w3.org/2000/svg">
  <defs>
    <symbol id="logo" viewBox="0 0 39 32">
      <path d="m22.377 9.64-.741-.571a.56.56 0 0 0-.792.08L10.593 21.046l.158.177 2.539-2.366a.4.4 0 0 1-.099-.673.39.39 0 0 1 .618.187l3.347-3.137a.29.29 0 0 1 .362 0l.17.126a.28.28 0 0 0 .379-.045l4.376-4.96a.467.467 0 0 0 .128-.372.465.465 0 0 0-.196-.341z"/>
      <path d="M27.195 12.989a22.748 22.748 0 0 1-7.418 3.514 39.8 39.8 0 0 1-8.069 1.211c.055.406.153.804.294 1.189 1.538 1.406 13.118-.994 15.38-3.771.481-.577-.187-2.143-.187-2.143zm-13.751 5.868a.383.383 0 0 1-.356-.24.39.39 0 0 1 .28-.529.383.383 0 0 1 .395.165.394.394 0 0 1-.172.577.375.375 0 0 1-.148.028zM2.503 12.166l.09-.394 1.47.337c.121.226.196.475.221.731.028.271.011.546-.051.811a2.153 2.153 0 0 1-.486.994 1.93 1.93 0 0 1-.871.571 2.042 2.042 0 0 1-1.069.04 1.97 1.97 0 0 1-.944-.503 1.89 1.89 0 0 1-.537-.897 2.173 2.173 0 0 1 0-1.143c.061-.28.17-.547.322-.789a1.65 1.65 0 0 1 .565-.531l.204.314a1.629 1.629 0 0 0-.747 1.108c-.07.296-.064.604.017.897.076.278.227.529.435.726.214.21.483.354.775.417.283.08.582.08.865 0 .271-.09.514-.25.707-.463.198-.23.334-.507.396-.806a1.771 1.771 0 0 0-.068-1.091l-1.295-.331zM5.703 8.572l-1.317 1.777.565 1.023-.26.354-2.092-3.857.243-.337 4.258.926-.266.354-1.131-.24zM5.33 8.48l-2.262-.514 1.131 2.051L5.33 8.48zM5.33 4.886l.339-.257 2.154 2.914L9.598 6.2l.215.291-2.109 1.594-2.375-3.2zM8.892 2.503l.379-.171 1.493 3.303 2.019-.926.147.331-2.397 1.103-1.64-3.64zM16.344 3.817l.085.36-2.725.646-.905-3.897 2.646-.623.079.354-2.262.531.322 1.383 1.99-.474.085.354-1.996.469.339 1.446 2.341-.549zM20.229 3.96l-.944-1.257a2.794 2.794 0 0 1-.317 0l-1.063.034.04 1.269h-.418l-.13-4L18.901 0c.425-.04.85.076 1.199.326.147.119.265.271.345.443s.121.361.119.551c.016.282-.057.563-.209.8a1.32 1.32 0 0 1-.656.486l.99 1.337-.458.017zm-.396-1.88a.908.908 0 0 0 .288-.748.911.911 0 0 0-.333-.732A1.361 1.361 0 0 0 18.9.366l-1.074.04.068 2 1.052-.034a1.35 1.35 0 0 0 .888-.291zM23.22 2.897l-.204 1.366-.413-.063.209-1.343L21.642 0l.441.069 1.001 2.434L24.78.486l.396.086-1.956 2.326zM28.812 2.657l.492.646-.215.171-.492-.663-.311.749-.238-.103.317-.749-.814.109v-.274l.803-.091-.498-.646.221-.171.435.651.305-.754.243.103-.288.766.814-.114v.28l-.775.091zM30.7 7.263a1.584 1.584 0 0 1-.243-.691l.334-.149c.025.226.098.445.215.64.126.219.291.412.486.571.202.195.459.321.735.36a.613.613 0 0 0 .531-.223.506.506 0 0 0 .13-.389 1.063 1.063 0 0 0-.136-.394 5.985 5.985 0 0 0-.345-.509A5.005 5.005 0 0 1 32 5.85a1.15 1.15 0 0 1-.147-.537c0-.212.078-.416.22-.571.123-.151.286-.264.469-.326.205-.06.423-.06.628 0 .264.087.508.227.718.411.174.146.328.315.458.503.12.174.21.367.266.571l-.322.171a2.018 2.018 0 0 0-.249-.537 2.022 2.022 0 0 0-.379-.394 1.253 1.253 0 0 0-.729-.349.598.598 0 0 0-.531.234.485.485 0 0 0-.13.389c.013.144.06.283.136.406.079.131.192.303.345.509.151.195.288.401.407.617.094.164.147.348.153.537a.84.84 0 0 1-.221.571 1.01 1.01 0 0 1-1.103.326 2.102 2.102 0 0 1-.724-.411 2.588 2.588 0 0 1-.565-.709zM36.389 8.097l-.797-1.143.294-.211 1.838 2.651-.294.211-.797-1.143-2.952 2.086-.237-.349 2.946-2.103zM35.122 12.794c.101-.345.297-.655.565-.891.263-.238.582-.401.927-.474a2.02 2.02 0 0 1 1.063.04c.333.111.631.308.865.571.244.283.409.626.481.994.094.361.094.741 0 1.103a1.958 1.958 0 0 1-.565.891 2.087 2.087 0 0 1-2.018.445 1.899 1.899 0 0 1-.865-.571 2.167 2.167 0 0 1-.481-.989 2.226 2.226 0 0 1 .028-1.12zm.741 1.817c.189.217.433.377.707.463a1.747 1.747 0 0 0 1.64-.366c.209-.194.363-.441.447-.714a1.857 1.857 0 0 0-.367-1.68 1.615 1.615 0 0 0-.729-.463 1.671 1.671 0 0 0-.871 0 1.6 1.6 0 0 0-1.216 1.114c-.077.29-.077.596 0 .886.062.284.196.546.39.76zM34.692 19.429l1.464-.571c0-.103.034-.206.062-.314l.277-1.034-1.199-.314.107-.406 3.822 1.034-.385 1.446a1.814 1.814 0 0 1-.656 1.063 1.218 1.218 0 0 1-1.075.16c-.273-.06-.517-.212-.693-.431s-.272-.492-.274-.775l-1.561.571.107-.429zm1.894.16a1.007 1.007 0 0 0 1.42.383c.25-.203.42-.488.481-.806l.271-1.029-1.917-.52-.271 1.029c-.104.306-.098.64.017.943zM32.662 23.109l-.288-.223 1.696-2.257 3.155 2.417-1.64 2.189-.288-.223 1.385-1.846-1.131-.863-1.238 1.651-.283-.217 1.267-1.651-1.17-.897-1.464 1.92zM31.339 27.663l-.808.046v-.274l.808-.006-.435-.68.221-.143.43.686.351-.766.243.131-.384.72.809-.046v.28h-.82l.435.68-.221.143-.43-.686-.373.743-.238-.137.413-.691zM23.989 27.206l.684.383c.115-.223.275-.418.47-.574s.42-.268.661-.329a1.76 1.76 0 0 1 .695-.074c.203.016.399.087.565.206a.903.903 0 0 1 .317.457c.068.226.056.468-.034.686a2.858 2.858 0 0 1-.565.794c.186.101.359.226.514.371a.99.99 0 0 1 .232.394.761.761 0 0 1-.147.669c-.151.22-.376.376-.633.44a.974.974 0 0 1-.701 0 .72.72 0 0 1-.407-.485.783.783 0 0 1 .04-.571c.13-.26.3-.497.503-.703l-1.363-.766a2.765 2.765 0 0 0-.034.817h-.345a2.76 2.76 0 0 1 .113-.994l-.712-.4.147-.32zm.984.571 1.498.84a2.4 2.4 0 0 0 .481-.657.733.733 0 0 0 0-.514.613.613 0 0 0-.396-.429 1.122 1.122 0 0 0-.724 0c-.192.051-.37.144-.523.273s-.275.289-.36.47l.023.017zm2.126 2.286a.522.522 0 0 0 .045-.422.706.706 0 0 0-.181-.297 2.416 2.416 0 0 0-.469-.314 2.98 2.98 0 0 0-.447.571.575.575 0 0 0-.045.423.48.48 0 0 0 .249.302.626.626 0 0 0 .447 0 .671.671 0 0 0 .379-.269l.023.006zM17.096 31.611l.079-4h.401l-.062 3.2 1.606-2.663h.198l1.504 2.709.057-3.183h.401l-.073 4h-.345L19.2 28.685l-1.758 2.931-.345-.006zM15.129 27.429c.259.249.444.566.534.915s.084.717-.02 1.062a2.034 2.034 0 0 1-.537.931c-.251.25-.567.424-.91.503a2.17 2.17 0 0 1-1.097-.034 2.12 2.12 0 0 1-.95-.52 1.92 1.92 0 0 1-.526-.903 2.122 2.122 0 0 1 .566-2.012 1.94 1.94 0 0 1 .893-.514 2.158 2.158 0 0 1 1.091.034c.359.092.689.277.956.537zm-1.928-.2a1.507 1.507 0 0 0-.729.411 1.66 1.66 0 0 0-.43.76 1.641 1.641 0 0 0 0 .874c.067.278.21.532.413.731.213.21.476.362.763.44.288.074.589.074.876 0a1.61 1.61 0 0 0 .735-.411c.207-.21.355-.473.43-.76a1.663 1.663 0 0 0 0-.88 1.607 1.607 0 0 0-.418-.731 1.688 1.688 0 0 0-.769-.434 1.61 1.61 0 0 0-.871 0zM8.92 24.571l.153 1.571c.097.042.191.09.283.143l.922.537.622-1.109.367.211-1.979 3.446-1.289-.749a1.804 1.804 0 0 1-.848-.914c-.061-.179-.082-.369-.061-.557s.085-.369.185-.529c.131-.25.34-.451.594-.571a1.3 1.3 0 0 1 .814-.063l-.164-1.68.401.263zm-.644 1.806a1.01 1.01 0 0 0-.636.486 1.037 1.037 0 0 0-.094.8 1.4 1.4 0 0 0 .65.68l.91.531.989-1.714-.91-.531a1.39 1.39 0 0 0-.91-.28v.029zM5.573 21.891l.254-.257 1.951 2.029-2.827 2.789-1.883-1.966.26-.257 1.6 1.663.967-.989-1.402-1.474.271-.263 1.431 1.486 1.052-1.034-1.674-1.726zM1.372 19.646l.136-.789.266.04-.153.811.752-.28.09.251-.763.263.628.537-.181.206-.605-.571-.141.811-.271-.051.158-.811-.758.274-.085-.223.758-.269-.628-.531.187-.206.611.537z"/>
    </symbol>
    <symbol id="instagram" viewBox="0 0 32 32">
      <path d="M31.969 9.408c-.075-1.7-.35-2.869-.744-3.882a7.806 7.806 0 0 0-1.851-2.838A7.867 7.867 0 0 0 26.542.844C25.523.45 24.36.175 22.66.1 20.947.019 20.403 0 16.059 0s-4.888.019-6.595.094c-1.7.075-2.869.35-3.882.744a7.803 7.803 0 0 0-2.838 1.85A7.867 7.867 0 0 0 .9 5.52C.506 6.539.231 7.702.156 9.402c-.081 1.713-.1 2.257-.1 6.601s.019 4.888.094 6.595c.075 1.7.35 2.869.744 3.882a7.895 7.895 0 0 0 1.85 2.838 7.867 7.867 0 0 0 2.832 1.844c1.019.394 2.182.669 3.882.744 1.706.075 2.25.094 6.595.094s4.888-.019 6.595-.094c1.7-.075 2.869-.35 3.882-.744a8.184 8.184 0 0 0 4.682-4.682c.394-1.019.669-2.182.744-3.882.075-1.707.094-2.251.094-6.595s-.006-4.888-.081-6.595zm-2.882 13.065c-.069 1.563-.331 2.407-.55 2.969a5.31 5.31 0 0 1-3.038 3.038c-.563.219-1.413.481-2.969.55-1.688.075-2.194.094-6.464.094s-4.782-.019-6.464-.094c-1.563-.069-2.407-.331-2.969-.55a4.926 4.926 0 0 1-1.838-1.194 4.974 4.974 0 0 1-1.194-1.838c-.219-.563-.481-1.413-.55-2.969-.075-1.688-.094-2.194-.094-6.464s.019-4.782.094-6.464c.069-1.563.331-2.407.55-2.969a4.868 4.868 0 0 1 1.2-1.838A4.974 4.974 0 0 1 6.639 3.55c.563-.219 1.413-.481 2.969-.55 1.688-.075 2.194-.094 6.464-.094 4.276 0 4.782.019 6.464.094 1.563.069 2.407.331 2.969.55a4.914 4.914 0 0 1 1.838 1.194 4.974 4.974 0 0 1 1.194 1.838c.219.563.481 1.413.55 2.969.075 1.688.094 2.194.094 6.464s-.019 4.77-.094 6.458z"/>
      <path d="M16.059 7.783c-4.538 0-8.22 3.682-8.22 8.22s3.682 8.22 8.22 8.22c4.539 0 8.22-3.682 8.22-8.22s-3.682-8.22-8.22-8.22zm0 13.552a5.333 5.333 0 0 1 0-10.664 5.333 5.333 0 0 1 0 10.664zM26.524 7.458a1.919 1.919 0 1 1-3.838 0 1.919 1.919 0 0 1 3.838 0z"/>
    </symbol>
    <symbol id="twitter" viewBox="0 0 32 32">
      <path d="M32 6.078c-1.19.522-2.458.868-3.78 1.036a6.523 6.523 0 0 0 2.886-3.626 13.11 13.11 0 0 1-4.16 1.588A6.574 6.574 0 0 0 22.154 3c-3.632 0-6.556 2.948-6.556 6.562 0 .52.044 1.02.152 1.496-5.454-.266-10.28-2.88-13.522-6.862a6.605 6.605 0 0 0-.898 3.316 6.57 6.57 0 0 0 2.914 5.452 6.479 6.479 0 0 1-2.964-.808v.072c0 3.188 2.274 5.836 5.256 6.446a6.548 6.548 0 0 1-1.72.216 5.8 5.8 0 0 1-1.242-.112c.85 2.598 3.262 4.508 6.13 4.57a13.182 13.182 0 0 1-8.134 2.798c-.538 0-1.054-.024-1.57-.09A18.469 18.469 0 0 0 10.064 29c12.072 0 18.672-10 18.672-18.668 0-.29-.01-.57-.024-.848A13.087 13.087 0 0 0 32 6.078z"/>
    </symbol>
    <symbol id="facebook" viewBox="0 0 32 32">
      <path d="M21.329 5.313h2.921V.225C23.746.156 22.013 0 19.994 0c-4.212 0-7.097 2.649-7.097 7.519V12H8.249v5.688h4.648V32h5.699V17.689h4.46l.708-5.688h-5.169V8.082c.001-1.644.444-2.769 2.735-2.769z"/>
    </symbol>
    <symbol id="linkedin" viewBox="0 0 32 32">
      <path d="M31.992 32v-.001H32V20.263c0-5.741-1.236-10.164-7.948-10.164-3.227 0-5.392 1.771-6.276 3.449h-.093v-2.913h-6.364v21.364h6.627V21.42c0-2.785.528-5.479 3.977-5.479 3.399 0 3.449 3.179 3.449 5.657v10.401h6.62zM.528 10.636h6.635V32H.528V10.636zM3.843 0C1.722 0 0 1.721 0 3.843s1.721 3.879 3.843 3.879c2.121 0 3.843-1.757 3.843-3.879A3.846 3.846 0 0 0 3.843 0z"/>
    </symbol>
    <symbol id="map-pin" fill="none" viewBox="0 0 32 32">
      <path stroke-width="1.333" stroke-linecap="round" stroke-linejoin="round" d="M26.667 13.818C26.667 21.454 16 28 16 28S5.333 21.455 5.333 13.818C5.333 8.396 10.109 4 16 4s10.667 4.396 10.667 9.818z"/>
      <path stroke-width="1.333" stroke-linecap="round" stroke-linejoin="round" d="M16 18.667a4 4 0 1 0 0-8 4 4 0 0 0 0 8z"/>
    </symbol>
    <symbol id="phone" fill="none" viewBox="0 0 32 32">
      <path stroke-width="1.333" stroke-linecap="round" stroke-linejoin="round" d="M26.666 21.337v3.218a2.146 2.146 0 0 1-2.338 2.145 21.239 21.239 0 0 1-9.257-3.293 20.914 20.914 0 0 1-6.436-6.436 21.221 21.221 0 0 1-3.293-9.3 2.144 2.144 0 0 1 2.134-2.338h3.218a2.144 2.144 0 0 1 2.145 1.845c.136 1.03.388 2.041.751 3.014a2.144 2.144 0 0 1-.483 2.263l-1.362 1.362a17.162 17.162 0 0 0 6.436 6.436l1.362-1.362a2.146 2.146 0 0 1 2.263-.483c.973.363 1.984.615 3.014.751a2.144 2.144 0 0 1 1.845 2.177z"/>
    </symbol>
    <symbol id="mail" fill="none" viewBox="0 0 32 32">
      <path stroke-width="1.333" stroke-linecap="round" stroke-linejoin="round" d="M6.4 6.667h19.2c1.32 0 2.4 1.05 2.4 2.333v14c0 1.283-1.08 2.333-2.4 2.333H6.4C5.08 25.333 4 24.283 4 23V9c0-1.283 1.08-2.333 2.4-2.333z"/>
      <path stroke-width="1.333" stroke-linecap="round" stroke-linejoin="round" d="m26.667 9.333-10.667 8-10.667-8"/>
    </symbol>
  </defs>
</svg>
